<svg width="80" height="80" viewBox="0 0 80 80" fill="none" xmlns="http://www.w3.org/2000/svg">
<path d="M-0.000172541 48.5515C1.65151 43.3833 4.50199 38.7746 8.55128 34.7253C11.6948 31.4752 17.1027 27.6124 24.7751 23.1369C31.6482 19.1941 36.3901 15.9174 39.0008 13.3067C41.9312 10.3763 43.9026 7.15285 44.9149 3.63638C45.2346 2.78389 45.6608 2.06461 46.1936 1.47853C46.9396 0.839172 47.7121 0.412933 48.5113 0.199806C50.3761 -0.226433 52.0012 0.199806 53.3864 1.47853L78.3215 26.4136C79.7068 27.8522 80.133 29.5305 79.6002 31.4486C77.9485 36.7233 75.0714 41.332 70.9689 45.2747C67.8786 48.5248 62.4707 52.3876 54.7451 56.8631C47.872 60.8059 43.1567 64.0826 40.5992 66.6933C37.6688 69.5172 35.6708 72.7406 34.6052 76.3636C34.2855 77.2161 33.8859 77.9354 33.4064 78.5215C32.6605 79.1609 31.8613 79.5871 31.0088 79.8002C29.144 80.2265 27.5456 79.8002 26.2136 78.5215L1.19863 53.5864C-0.133373 52.1479 -0.532973 50.4695 -0.000172541 48.5515ZM4.79503 49.99L12.7071 57.9021L29.81 75.005C31.142 70.7959 33.3798 67.0663 36.5233 63.8162C39.6668 60.5661 43.0768 57.8488 46.7531 55.6643L57.782 49.2707L68.0917 41.1988C74.9649 35.8175 77.176 32.0879 74.7251 30.01L49.79 5.07494C48.5113 9.23078 46.3002 12.9337 43.1567 16.1838C40.0131 19.4339 36.5766 22.1512 32.847 24.3357L21.7381 30.7293L11.5083 38.8012C4.68847 44.1825 2.45071 47.9121 4.79503 49.99ZM26.6931 65.8941L28.3715 63.5764C29.5436 62.1379 30.7957 60.726 32.1277 59.3407C33.2999 58.1152 34.7651 56.8099 36.5233 55.4246C37.1094 54.9451 37.6688 54.9451 38.2016 55.4246C38.841 56.0639 38.841 56.7033 38.2016 57.3427H38.0418C36.3901 58.6747 35.0048 59.9268 33.8859 61.0989C32.6072 62.3244 31.4617 63.6031 30.4494 64.9351L28.851 67.1728C28.7444 67.2794 28.6911 67.386 28.6911 67.4925C28.0518 68.1319 27.4391 68.1319 26.853 67.4925C26.4267 66.9597 26.3735 66.4269 26.6931 65.8941ZM28.851 37.2028C28.9575 36.2438 29.2239 35.3646 29.6502 34.5654C30.0764 33.6064 30.5826 32.7539 31.1687 32.008C31.1687 31.9014 31.0488 31.7816 30.809 31.6484C30.5693 31.5152 30.4494 31.3154 30.4494 31.049C30.4494 30.7826 30.5559 30.5162 30.7691 30.2498C30.9822 29.9834 31.1953 29.8502 31.4084 29.8502C31.6215 29.8502 31.8213 29.9567 32.0078 30.1698C32.1943 30.383 32.3941 30.5428 32.6072 30.6494C33.0335 30.2231 33.5663 29.7969 34.2056 29.3706C34.845 28.9444 35.5909 28.6247 36.4434 28.4116C37.2959 28.1985 38.0684 28.1718 38.7611 28.3317C39.4537 28.4915 40.0931 28.8911 40.6791 29.5305C41.1054 29.9567 41.3185 30.4362 41.3185 30.969C41.3185 31.5018 41.1054 31.9014 40.6791 32.1678C40.4128 32.4875 40.0131 32.5941 39.4804 32.4875C39.1607 32.381 38.6811 32.2744 38.0418 32.1678C37.5623 31.9547 37.0295 31.8748 36.4434 31.9281C35.8573 31.9814 35.2446 32.2744 34.6052 32.8072C35.6708 33.8728 37.0295 35.3913 38.6811 37.3626C39.4271 36.9364 40.2396 36.5634 41.1187 36.2438C41.9978 35.9241 42.8636 35.711 43.7161 35.6044C44.5686 35.4978 45.3944 35.5778 46.1936 35.8442C46.9928 36.1106 47.792 36.5634 48.5912 37.2028C49.3904 37.8422 49.9499 38.5082 50.2696 39.2008C50.4827 39.9467 50.536 40.7459 50.4294 41.5984C50.4294 42.3976 50.163 43.2767 49.6302 44.2358C49.204 45.2481 48.6179 46.2338 47.872 47.1928C48.2982 47.5125 48.7244 47.8588 49.1507 48.2318C49.3638 48.3383 49.497 48.5248 49.5503 48.7912C49.6036 49.0576 49.5236 49.2974 49.3105 49.5105C49.0974 49.7236 48.8576 49.8568 48.5912 49.9101C48.3248 49.9634 48.0851 49.8835 47.872 49.6703C47.3924 49.2441 46.9928 48.8179 46.6732 48.3916C45.7141 49.3507 44.795 49.99 43.9159 50.3097C43.0368 50.6294 42.1177 50.7892 41.1587 50.7892C40.3595 50.6827 39.6135 50.4695 38.9209 50.1499C38.2283 49.8302 37.6955 49.4306 37.3225 48.9511C36.9495 48.4715 36.7364 48.0187 36.6831 47.5924C36.6299 47.1662 36.843 46.7399 37.3225 46.3137C37.802 45.8875 38.1483 45.701 38.3615 45.7543L39.4004 45.994C39.8799 46.1006 40.2263 46.3137 40.4394 46.6334C40.6525 46.9531 40.9988 47.1395 41.4783 47.1928C41.9579 47.2461 42.4108 47.2461 42.837 47.1928C43.2632 47.1395 43.796 46.8199 44.4354 46.2338C43.3165 45.1149 41.8247 43.4632 39.9599 41.2787C38.2549 42.1845 36.5233 42.6907 34.7651 42.7972C33.2199 42.9038 31.8879 42.5042 30.7691 41.5984C30.0231 40.9591 29.4903 40.2664 29.1707 39.5205C28.851 38.7746 28.7444 38.002 28.851 37.2028ZM32.2076 36.3237C32.1543 36.6966 32.181 37.0696 32.2875 37.4426C32.3941 37.8155 32.6072 38.0819 32.9269 38.2418C33.4597 38.7746 34.0458 39.0143 34.6851 38.961C35.3245 38.9078 36.2036 38.6414 37.3225 38.1618C35.7241 36.4569 34.4187 35.0982 33.4064 34.0859L32.6072 35.2048C32.3941 35.5245 32.2609 35.8974 32.2076 36.3237ZM41.1587 24.8951C40.6791 24.3623 40.6791 23.7762 41.1587 23.1369C41.2652 23.0303 41.3718 22.977 41.4783 22.977C43.1833 21.645 44.5952 20.393 45.7141 19.2208C46.9396 17.9953 48.0851 16.69 49.1507 15.3047L50.6692 13.1469C50.7757 12.9337 50.8823 12.8272 50.9888 12.8272C51.6282 12.1878 52.2143 12.1612 52.7471 12.7473C53.2799 13.3333 53.3332 13.9461 52.9069 14.5854L51.1487 16.9031C50.0298 18.3417 48.7777 19.7536 47.3924 21.1389C46.2736 22.3643 44.835 23.643 43.0768 24.975C42.4374 25.5078 41.798 25.4812 41.1587 24.8951ZM41.4783 40.4795C43.1833 42.3443 44.5952 43.8362 45.7141 44.9551C46.0338 44.6887 46.3002 44.3423 46.5133 43.9161C46.7264 43.4899 46.8863 43.0636 46.9928 42.6374C47.0994 42.2111 47.0994 41.8382 46.9928 41.5185C46.8863 41.1988 46.6465 40.8259 46.2736 40.3996C45.9006 39.9734 45.501 39.7336 45.0748 39.6803C44.6485 39.6271 44.2489 39.6004 43.8759 39.6004C43.503 39.6004 43.0768 39.7336 42.5972 40L41.4783 40.4795Z" fill="#996F1A"/>
</svg>
