<svg width="21" height="22" viewBox="0 0 21 22" fill="none" xmlns="http://www.w3.org/2000/svg">
<path d="M13.7802 10.9999C13.7802 10.0559 13.4522 9.2479 12.7962 8.5759C12.1402 7.9039 11.3322 7.5679 10.3722 7.5679C9.41217 7.5679 8.60417 7.9039 7.94817 8.5759C7.29217 9.2479 6.95617 10.0559 6.94017 10.9999C6.92417 11.9439 7.26017 12.7519 7.94817 13.4239C8.63617 14.0959 9.44417 14.4319 10.3722 14.4319C11.3002 14.4319 12.1082 14.0959 12.7962 13.4239C13.4842 12.7519 13.8122 11.9439 13.7802 10.9999ZM15.6282 10.9999C15.6282 12.4559 15.1162 13.7039 14.0922 14.7439C13.0682 15.7839 11.8282 16.2959 10.3722 16.2799C8.91617 16.2639 7.66817 15.7519 6.62817 14.7439C5.58817 13.7359 5.07617 12.4879 5.09217 10.9999C5.10817 9.5119 5.62017 8.2639 6.62817 7.2559C7.63617 6.2479 8.88417 5.7359 10.3722 5.7199C11.8602 5.7039 13.1002 6.2159 14.0922 7.2559C15.0842 8.2959 15.5962 9.5439 15.6282 10.9999ZM17.0922 5.5039C17.0922 5.8399 16.9722 6.1279 16.7322 6.3679C16.4922 6.6079 16.1962 6.7279 15.8442 6.7279C15.4922 6.7279 15.2042 6.6079 14.9802 6.3679C14.7562 6.1279 14.6362 5.8399 14.6202 5.5039C14.6042 5.1679 14.7242 4.8799 14.9802 4.6399C15.2362 4.3999 15.5242 4.2799 15.8442 4.2799C16.1642 4.2799 16.4602 4.3999 16.7322 4.6399C17.0042 4.8799 17.1242 5.1679 17.0922 5.5039ZM10.3722 2.5519C10.3082 2.5519 9.96417 2.5519 9.34017 2.5519H7.92417C7.60417 2.5519 7.17217 2.5679 6.62817 2.5999C6.08417 2.6319 5.62817 2.6719 5.26017 2.7199C4.89217 2.7679 4.57217 2.8559 4.30017 2.9839C3.85217 3.1599 3.46017 3.4159 3.12417 3.7519C2.78817 4.0879 2.52417 4.4799 2.33217 4.9279C2.23617 5.1839 2.15617 5.5039 2.09217 5.8879C2.02817 6.2719 1.98017 6.7359 1.94817 7.2799C1.91617 7.8239 1.90817 8.2479 1.92417 8.5519C1.94017 8.8559 1.94017 9.3279 1.92417 9.9679C1.90817 10.6079 1.90817 10.9519 1.92417 10.9999C1.94017 11.0479 1.94017 11.3919 1.92417 12.0319C1.90817 12.6719 1.90817 13.1439 1.92417 13.4479C1.94017 13.7519 1.94817 14.1759 1.94817 14.7199C1.94817 15.2639 1.99617 15.7279 2.09217 16.1119L2.33217 17.0719C2.52417 17.5199 2.78817 17.9119 3.12417 18.2479C3.46017 18.5839 3.85217 18.8399 4.30017 19.0159C4.55617 19.1119 4.87617 19.1999 5.26017 19.2799C5.64417 19.3599 6.10017 19.3999 6.62817 19.3999C7.15617 19.3999 7.58817 19.4159 7.92417 19.4479C8.26017 19.4799 8.73217 19.4799 9.34017 19.4479C9.94817 19.4159 10.2922 19.4159 10.3722 19.4479C10.4522 19.4799 10.7882 19.4799 11.3802 19.4479C11.9722 19.4159 12.4442 19.4159 12.7962 19.4479C13.1482 19.4799 13.5802 19.4639 14.0922 19.3999C14.6042 19.3359 15.0682 19.2959 15.4842 19.2799C15.9002 19.2639 16.2122 19.1759 16.4202 19.0159C16.8682 18.8399 17.2682 18.5839 17.6202 18.2479C17.9722 17.9119 18.2282 17.5199 18.3882 17.0719C18.4842 16.8159 18.5642 16.4959 18.6282 16.1119C18.6922 15.7279 18.7402 15.2639 18.7722 14.7199C18.8042 14.1759 18.8122 13.7519 18.7962 13.4479C18.7802 13.1439 18.7802 12.6719 18.7962 12.0319C18.8122 11.3919 18.8122 11.0479 18.7962 10.9999C18.7802 10.9519 18.7802 10.6079 18.7962 9.9679C18.8122 9.3279 18.8122 8.8559 18.7962 8.5519C18.7802 8.2479 18.7722 7.8239 18.7722 7.2799C18.7722 6.7359 18.7242 6.2719 18.6282 5.8879L18.3882 4.9279C18.2122 4.4799 17.9562 4.0879 17.6202 3.7519C17.2842 3.4159 16.8842 3.1599 16.4202 2.9839C16.1642 2.8879 15.8522 2.7999 15.4842 2.7199C15.1162 2.6399 14.6522 2.5999 14.0922 2.5999C13.5322 2.5999 13.1002 2.5839 12.7962 2.5519C12.4922 2.5199 12.0202 2.5199 11.3802 2.5519C10.7402 2.5839 10.4042 2.5839 10.3722 2.5519ZM20.6442 10.9999C20.6442 13.0479 20.6202 14.4639 20.5722 15.2479C20.4922 17.1039 19.9402 18.5439 18.9162 19.5679C17.8922 20.5919 16.4602 21.1439 14.6202 21.2239C13.8202 21.2719 12.4042 21.2959 10.3722 21.2959C8.34017 21.2959 6.92417 21.2719 6.12417 21.2239C4.26817 21.1279 2.82817 20.5759 1.80417 19.5679C0.780172 18.5599 0.228172 17.1199 0.148172 15.2479C0.100172 14.4639 0.0761719 13.0479 0.0761719 10.9999C0.0761719 8.9519 0.100172 7.5359 0.148172 6.7519C0.228172 4.8959 0.780172 3.4559 1.80417 2.4319C2.82817 1.4079 4.26817 0.855898 6.12417 0.775898C6.90817 0.727898 8.32417 0.703897 10.3722 0.703897C12.4202 0.703897 13.8362 0.727898 14.6202 0.775898C16.4762 0.871899 17.9082 1.4239 18.9162 2.4319C19.9242 3.4399 20.4762 4.8799 20.5722 6.7519C20.6202 7.5359 20.6442 8.9519 20.6442 10.9999Z" fill="white"/>
</svg>
