<svg width="24" height="24" viewBox="0 0 24 24" fill="none" xmlns="http://www.w3.org/2000/svg">
<path d="M11.9101 0.480019C15.1101 0.480019 17.8301 1.60002 20.0701 3.84002C22.3101 6.08002 23.4301 8.79202 23.4301 11.976C23.4301 15.16 22.3101 17.88 20.0701 20.136C17.8301 22.392 15.1181 23.52 11.9341 23.52C8.75014 23.52 6.03014 22.392 3.77414 20.136C1.51814 17.88 0.390137 15.16 0.390137 11.976C0.390137 8.79202 1.51814 6.08002 3.77414 3.84002C6.03014 1.60002 8.74214 0.480019 11.9101 0.480019ZM9.07814 16.752V9.26402H6.77414V16.752H9.07814ZM7.92614 8.30402C8.75814 8.30402 9.17414 7.92002 9.17414 7.15202C9.17414 6.38402 8.75814 6.00002 7.92614 6.00002C7.57414 6.00002 7.27814 6.11202 7.03814 6.33602C6.79814 6.56002 6.67814 6.83202 6.67814 7.15202C6.67814 7.92002 7.09414 8.30402 7.92614 8.30402ZM17.6221 16.752V12.336C17.6221 11.28 17.3741 10.472 16.8781 9.91202C16.3821 9.35202 15.7341 9.07202 14.9341 9.07202C13.8781 9.07202 13.1101 9.47202 12.6301 10.272H12.5821L12.4381 9.26402H10.4221C10.4541 9.71202 10.4701 10.512 10.4701 11.664V16.752H12.8221V12.432C12.8221 12.144 12.8541 11.952 12.9181 11.856C13.1101 11.248 13.5101 10.944 14.1181 10.944C14.8861 10.944 15.2701 11.488 15.2701 12.576V16.752H17.6221Z" fill="white"/>
</svg>
