<svg width="69" height="69" viewBox="0 0 69 69" fill="none" xmlns="http://www.w3.org/2000/svg">
<path d="M34.4 -7.62939e-06C43.8933 -7.62939e-06 52 3.35999 58.72 10.08C65.44 16.8 68.8 24.9067 68.8 34.4C68.8 43.8933 65.44 52 58.72 58.72C52 65.44 43.8933 68.8 34.4 68.8C24.9067 68.8 16.8 65.44 10.08 58.72C3.36 52 0 43.8933 0 34.4C0 24.9067 3.36 16.8 10.08 10.08C16.8 3.35999 24.9067 -7.62939e-06 34.4 -7.62939e-06ZM37.28 62.24C43.8933 61.4933 49.5467 58.7733 54.24 54.08C58.9333 49.3867 61.6 43.7333 62.24 37.12H46.88V31.52H62.24C61.6 24.9067 58.9333 19.2533 54.24 14.56C49.5467 9.86666 43.8933 7.14666 37.28 6.39999V21.92H31.68V6.39999C25.0667 7.14666 19.3867 9.86666 14.64 14.56C9.89333 19.2533 7.2 24.9067 6.56 31.52H22.08V37.12H6.56C7.2 43.7333 9.89333 49.3867 14.64 54.08C19.3867 58.7733 25.0667 61.4933 31.68 62.24V46.72H37.28V62.24Z" fill="#996F1A"/>
</svg>
