<svg width="80" height="72" viewBox="0 0 80 72" fill="none" xmlns="http://www.w3.org/2000/svg">
<path d="M12.3999 23.52C11.9732 23.9467 11.6799 24.5333 11.5199 25.28C11.3599 26.0267 11.2799 26.6933 11.2799 27.28C11.2799 27.8667 11.2266 28.16 11.1199 28.16L9.75992 29.36C8.95992 30.0533 8.45325 30.5067 8.23991 30.72C7.38658 31.4667 6.63991 31.36 5.99992 30.4L0.399915 24.32C-0.186751 23.68 -0.133418 23.04 0.559915 22.4C0.666582 22.2933 1.14658 21.92 1.99992 21.28C2.85325 20.64 3.38658 20.2133 3.59992 20C3.91992 19.68 4.63991 19.52 5.75991 19.52C6.87992 19.52 7.83991 19.1467 8.63991 18.4C9.43991 17.6533 9.94658 16.64 10.1599 15.36C10.3732 14.08 10.6399 13.28 10.9599 12.96C11.0666 12.96 11.3066 12.7733 11.6799 12.4C12.0532 12.0267 12.7466 11.44 13.7599 10.64C14.7732 9.84 15.8666 9.01333 17.0399 8.16C24.1866 3.36 29.1466 0.799995 31.9199 0.479996C38.4266 0.479996 42.3732 0.533333 43.7599 0.639999C44.3999 0.639999 44.1866 0.853333 43.1199 1.28C36.7199 4.05333 32.6666 6.07999 30.9599 7.36C26.6932 10.3467 25.7332 13.3867 28.0799 16.48C29.8932 18.9333 30.9066 20.2133 31.1199 20.32C31.5466 20.7467 31.4932 21.12 30.9599 21.44L24.8799 27.04C24.1332 27.4667 23.6532 27.5733 23.4399 27.36C21.1999 24.8 19.3066 23.2 17.7599 22.56C16.2132 21.92 14.4266 22.24 12.3999 23.52ZM35.2799 25.6L68.0799 63.68C69.0399 64.8533 68.9866 65.8667 67.9199 66.72L64.0799 70.08C62.9066 70.8267 61.8932 70.72 61.0399 69.76L27.9199 32C27.4932 31.5733 27.4932 31.04 27.9199 30.4L33.6799 25.44C34.3199 25.0133 34.8532 25.0667 35.2799 25.6ZM79.5999 9.44C80.4532 14.9867 80.0266 19.4133 78.3199 22.72C75.6533 27.4133 71.5466 29.0667 65.9999 27.68C63.0132 27.04 60.3466 27.8933 57.9999 30.24L51.4399 36.48L45.9999 30.24L51.4399 24.64C52.7199 23.36 53.5466 21.9467 53.9199 20.4C54.2932 18.8533 54.4533 17.12 54.3999 15.2C54.3466 13.28 54.4799 11.7333 54.7999 10.56C55.4399 7.57333 59.1732 4.58666 65.9999 1.6C66.6399 1.28 67.1199 1.36 67.4399 1.84C67.7599 2.32 67.8132 2.72 67.5999 3.04C66.9599 3.68 65.7332 5.81333 63.9199 9.44C63.1732 9.97333 62.8532 10.9067 62.9599 12.24C63.0666 13.5733 64.1332 14.9867 66.1599 16.48C69.2533 18.6133 71.8132 18.0267 73.8399 14.72C74.1599 14.08 74.8532 12.9867 75.9199 11.44C76.9866 9.89333 77.5732 9.01333 77.6799 8.8C77.8932 8.26666 78.2399 8.02666 78.7199 8.08C79.1999 8.13333 79.4932 8.58667 79.5999 9.44ZM10.9599 64.16L31.2799 44.32L37.3599 51.2L17.6799 70.56C16.6132 71.6267 15.5999 71.7333 14.6399 70.88L10.9599 67.2C9.78658 66.24 9.78658 65.2267 10.9599 64.16Z" fill="#996F1A"/>
</svg>
