<svg width="98" height="108" viewBox="0 0 98 108" fill="none" xmlns="http://www.w3.org/2000/svg">
<g filter="url(#filter0_d_19_6)">
<rect x="23" y="18" width="60" height="60" rx="30" fill="#25D366" shape-rendering="crispEdges"/>
<g clip-path="url(#clip0_19_6)">
<g clip-path="url(#clip1_19_6)">
<path d="M40.274 35.2742C47.303 28.2452 58.7 28.2452 65.729 35.2742C72.758 42.3032 72.758 53.6987 65.729 60.7292C63.0774 63.3807 59.6642 65.1382 55.9656 65.7564C52.2671 66.3746 48.4678 65.8227 45.098 64.1777L36.377 65.2802C36.2878 65.2915 36.1971 65.2822 36.1121 65.253C36.027 65.2238 35.9497 65.1754 35.8863 65.1117C35.8228 65.0479 35.7748 64.9705 35.746 64.8853C35.7172 64.8001 35.7083 64.7094 35.72 64.6202L36.842 55.9382C35.1874 52.5663 34.6288 48.7614 35.2445 45.0562C35.8602 41.351 37.6193 37.9312 40.2755 35.2757L40.274 35.2742ZM45.689 60.8387L46.139 61.0757C48.9273 62.5376 52.1098 63.0701 55.2222 62.5958C58.3345 62.1214 61.2138 60.6649 63.44 58.4387C69.2045 52.6742 69.2045 43.3277 63.44 37.5617C57.6755 31.7972 48.3275 31.7972 42.563 37.5617C40.3329 39.7921 38.8753 42.6778 38.4038 45.7964C37.9322 48.915 38.4715 52.1027 39.9425 54.8927L40.1825 55.3472L39.4175 61.2602C39.4117 61.3048 39.4161 61.3501 39.4305 61.3927C39.4449 61.4353 39.4689 61.4741 39.5007 61.5059C39.5324 61.5378 39.571 61.562 39.6135 61.5766C39.6561 61.5912 39.7014 61.5958 39.746 61.5902L45.689 60.8387ZM55.49 50.3342L54.0905 52.0802C51.9245 50.8074 50.119 49.003 48.845 46.8377L50.594 45.4382C50.7993 45.2744 50.9445 45.0471 51.0069 44.792C51.0693 44.5369 51.0455 44.2683 50.939 44.0282L49.3415 40.4402C49.227 40.1828 49.0248 39.9745 48.771 39.8522C48.5171 39.73 48.2282 39.7018 47.9555 39.7727C46.9438 40.0339 45.9323 40.2959 44.921 40.5587C44.638 40.6327 44.3918 40.8079 44.2293 41.0512C44.0667 41.2944 43.9991 41.5889 44.039 41.8787C44.5716 45.6706 46.3241 49.186 49.0317 51.8935C51.7392 54.6011 55.2547 56.3536 59.0465 56.8862C59.3362 56.9262 59.6304 56.8587 59.8737 56.6965C60.1169 56.5342 60.2922 56.2885 60.3665 56.0057L61.154 52.9712C61.2245 52.6987 61.1961 52.4101 61.0739 52.1567C60.9517 51.9032 60.7436 51.7012 60.4865 51.5867L56.9 49.9907C56.6599 49.8842 56.3913 49.8604 56.1362 49.9228C55.8811 49.9852 55.6539 50.1304 55.49 50.3357V50.3342Z" fill="white"/>
</g>
</g>
</g>
<defs>
<filter id="filter0_d_19_6" x="0" y="0" width="108" height="108" filterUnits="userSpaceOnUse" color-interpolation-filters="sRGB">
<feFlood flood-opacity="0" result="BackgroundImageFix"/>
<feColorMatrix in="SourceAlpha" type="matrix" values="0 0 0 0 0 0 0 0 0 0 0 0 0 0 0 0 0 0 127 0" result="hardAlpha"/>
<feOffset dx="1" dy="6"/>
<feGaussianBlur stdDeviation="12"/>
<feComposite in2="hardAlpha" operator="out"/>
<feColorMatrix type="matrix" values="0 0 0 0 0.027451 0 0 0 0 0.368627 0 0 0 0 0.329412 0 0 0 0.24 0"/>
<feBlend mode="normal" in2="BackgroundImageFix" result="effect1_dropShadow_19_6"/>
<feBlend mode="normal" in="SourceGraphic" in2="effect1_dropShadow_19_6" result="shape"/>
</filter>
<clipPath id="clip0_19_6">
<rect width="36" height="36" fill="white" transform="translate(35 30)"/>
</clipPath>
<clipPath id="clip1_19_6">
<rect width="36" height="36" fill="white" transform="translate(35 30)"/>
</clipPath>
</defs>
</svg>
